<svg xmlns="http://www.w3.org/2000/svg" version="1.1" xmlns:xlink="http://www.w3.org/1999/xlink" width="512" height="512" x="0" y="0" viewBox="0 0 512 512" style="enable-background:new 0 0 512 512" xml:space="preserve" class=""><g><path d="M400.959 499.81H111.041c-32.868 0-59.607-26.74-59.607-59.607V247.227c0-6.903 5.596-12.5 12.5-12.5 6.903 0 12.5 5.597 12.5 12.5v192.976c0 19.083 15.525 34.607 34.607 34.607h289.918c19.083 0 34.607-15.524 34.607-34.607V247.227c0-6.903 5.597-12.5 12.5-12.5s12.5 5.597 12.5 12.5v192.976c0 32.866-26.74 59.607-59.607 59.607z" fill="#f8cd96" opacity="1" data-original="#000000" class=""></path><path d="M322.068 444.827c-6.903 0-12.5-5.597-12.5-12.5V316.411a6.018 6.018 0 0 0-6.011-6.011h-96.055a6.018 6.018 0 0 0-6.011 6.011v115.916c0 6.903-5.596 12.5-12.5 12.5s-12.5-5.597-12.5-12.5V316.411c0-17.1 13.911-31.011 31.011-31.011h96.055c17.1 0 31.011 13.911 31.011 31.011v115.916c0 6.903-5.596 12.5-12.5 12.5zM15.455 229.727a12.478 12.478 0 0 1-9.767-4.689c-4.314-5.39-3.442-13.256 1.948-17.57L248.189 14.932c5.39-4.314 13.256-3.442 17.57 1.948s3.442 13.256-1.948 17.57L23.258 226.985a12.441 12.441 0 0 1-7.803 2.742z" fill="#f8cd96" opacity="1" data-original="#000000" class=""></path><path d="M496.545 229.727c-2.74 0-5.498-.896-7.803-2.742L248.189 34.449c-5.39-4.313-6.262-12.18-1.948-17.57s12.183-6.262 17.569-1.948l240.553 192.536c5.391 4.313 6.263 12.18 1.948 17.57a12.474 12.474 0 0 1-9.766 4.69z" fill="#f8cd96" opacity="1" data-original="#000000" class=""></path></g></svg>